<svg width="156" height="35" viewBox="0 0 156 35" fill="none" xmlns="http://www.w3.org/2000/svg">
<path d="M9.384 0.736023C14.6 0.736023 18.776 1.92002 21.912 4.28802C25.08 6.62402 26.664 10.928 26.664 17.2C26.664 23.376 25.128 27.728 22.056 30.256C18.984 32.752 15 34 10.104 34H0.119995V0.736023H9.384ZM7.992 6.44802V28.288H10.584C13.176 28.288 15.144 27.488 16.488 25.888C17.832 24.256 18.504 21.36 18.504 17.2C18.504 14.352 18.168 12.144 17.496 10.576C16.824 9.00802 15.912 7.93602 14.76 7.36002C13.608 6.75202 12.184 6.44802 10.488 6.44802H7.992Z" fill="#141414"/>
<path d="M53.4656 20.752C53.4656 21.808 53.4176 22.72 53.3216 23.488H37.5296C37.7856 25.632 38.3936 27.136 39.3536 28C40.3136 28.864 41.6416 29.296 43.3376 29.296C44.3616 29.296 45.3536 29.12 46.3136 28.768C47.2736 28.384 48.3136 27.808 49.4336 27.04L52.5536 31.264C49.5776 33.632 46.2656 34.816 42.6176 34.816C38.4896 34.816 35.3216 33.6 33.1136 31.168C30.9056 28.736 29.8016 25.472 29.8016 21.376C29.8016 18.784 30.2656 16.464 31.1936 14.416C32.1216 12.336 33.4816 10.704 35.2736 9.52002C37.0656 8.30402 39.2096 7.69602 41.7056 7.69602C45.3856 7.69602 48.2656 8.84802 50.3456 11.152C52.4256 13.456 53.4656 16.656 53.4656 20.752ZM46.0256 18.592C45.9616 14.688 44.5856 12.736 41.8976 12.736C40.5856 12.736 39.5616 13.216 38.8256 14.176C38.1216 15.136 37.6896 16.72 37.5296 18.928H46.0256V18.592Z" fill="#141414"/>
<path d="M72.654 7.69602C74.862 7.69602 76.59 8.36802 77.838 9.71202C79.086 11.056 79.71 12.944 79.71 15.376V34H72.126V16.672C72.126 15.392 71.918 14.512 71.502 14.032C71.118 13.52 70.526 13.264 69.726 13.264C68.19 13.264 66.718 14.368 65.31 16.576V34H57.726V8.51202H64.35L64.878 11.536C65.966 10.256 67.134 9.29602 68.382 8.65602C69.662 8.01602 71.086 7.69602 72.654 7.69602Z" fill="#141414"/>
<path d="M100.357 7.69602C102.565 7.69602 104.293 8.36802 105.541 9.71202C106.789 11.056 107.413 12.944 107.413 15.376V34H99.8291V16.672C99.8291 15.392 99.6211 14.512 99.2051 14.032C98.8211 13.52 98.2291 13.264 97.4291 13.264C95.8931 13.264 94.4211 14.368 93.0131 16.576V34H85.4291V8.51202H92.0531L92.5811 11.536C93.6691 10.256 94.8371 9.29602 96.0851 8.65602C97.3651 8.01602 98.7891 7.69602 100.357 7.69602Z" fill="#141414"/>
<path d="M135.356 20.752C135.356 21.808 135.308 22.72 135.212 23.488H119.42C119.676 25.632 120.284 27.136 121.244 28C122.204 28.864 123.532 29.296 125.228 29.296C126.252 29.296 127.244 29.12 128.204 28.768C129.164 28.384 130.204 27.808 131.324 27.04L134.444 31.264C131.468 33.632 128.156 34.816 124.508 34.816C120.38 34.816 117.212 33.6 115.004 31.168C112.796 28.736 111.692 25.472 111.692 21.376C111.692 18.784 112.156 16.464 113.084 14.416C114.012 12.336 115.372 10.704 117.164 9.52002C118.956 8.30402 121.1 7.69602 123.596 7.69602C127.276 7.69602 130.156 8.84802 132.236 11.152C134.316 13.456 135.356 16.656 135.356 20.752ZM127.916 18.592C127.852 14.688 126.476 12.736 123.788 12.736C122.476 12.736 121.452 13.216 120.716 14.176C120.012 15.136 119.58 16.72 119.42 18.928H127.916V18.592Z" fill="#141414"/>
<path d="M153.441 7.79202C154.369 7.79202 155.217 7.90402 155.985 8.12802L154.785 15.472C153.825 15.248 153.057 15.136 152.481 15.136C150.977 15.136 149.825 15.664 149.025 16.72C148.257 17.744 147.649 19.296 147.201 21.376V34H139.617V8.51202H146.241L146.865 13.456C147.441 11.696 148.305 10.32 149.457 9.32802C150.641 8.30402 151.969 7.79202 153.441 7.79202Z" fill="#141414"/>
</svg>
